REM DIRINDEX 1\8,1\2\11,1\3\12,1\3\14,1\5\15,1\5\16,1\6\17,1\6\18,1\4\19,1\4\20,1\4\21,1\4\22,1\7\23,1\7\24,1\7\25,1\2\9\26,1\2\9\27,1\2\10\28,1\2\10\29,1\2\10\30,1\2\10\31,1\2\10\32,1\3\13\33,1\3\13\34,1\3\13\35
REM DIRNAME folder01,folder02,folder03,folder04,folder05,folder06,folder07,folder08,folder09,folder10,folder11,folder12,folder13,folder14,folder15,folder16,folder17,folder18,folder19,folder20,folder21,folder22,folder23,folder24,folder25,folder26,folder27,folder28,folder29,folder30,folder31,folder32,folder33,folder34,folder35
TITLE ""
FILE "2-55 055_UNIT5_SET3.mp3" MP3
  TRACK 01 AUDIO
    TITLE "11:cjc123_5724"
    INDEX 01 00:00:00
  TRACK 02 AUDIO
    TITLE "0:"
    INDEX 01 00:02:53
  TRACK 03 AUDIO
    TITLE "28:cjc123_5725"
    INDEX 01 00:03:31
  TRACK 04 AUDIO
    TITLE "0:"
    INDEX 01 00:04:33
  TRACK 05 AUDIO
    TITLE "29:cjc123_5726"
    INDEX 01 00:04:54
  TRACK 06 AUDIO
    TITLE "0:"
    INDEX 01 00:06:02
  TRACK 07 AUDIO
    TITLE "30:cjc123_5727"
    INDEX 01 00:06:12
  TRACK 08 AUDIO
    TITLE "0:"
    INDEX 01 00:07:23
  TRACK 09 AUDIO
    TITLE "31:cjc123_5728"
    INDEX 01 00:07:70
  TRACK 10 AUDIO
    TITLE "0:"
    INDEX 01 00:12:09
  TRACK 11 AUDIO
    TITLE "32:cjc123_5729"
    INDEX 01 00:12:52
  TRACK 12 AUDIO
    TITLE "0:"
    INDEX 01 00:17:14
  TRACK 13 AUDIO
    TITLE "28:cjc123_5730"
    INDEX 01 00:17:69
  TRACK 14 AUDIO
    TITLE "0:"
    INDEX 01 00:19:11
  TRACK 15 AUDIO
    TITLE "29:cjc123_5731"
    INDEX 01 00:19:24
  TRACK 16 AUDIO
    TITLE "0:"
    INDEX 01 00:20:59
  TRACK 17 AUDIO
    TITLE "30:cjc123_5732"
    INDEX 01 00:20:71
  TRACK 18 AUDIO
    TITLE "0:"
    INDEX 01 00:22:11
  TRACK 19 AUDIO
    TITLE "31:cjc123_5733"
    INDEX 01 00:22:58
  TRACK 20 AUDIO
    TITLE "0:"
    INDEX 01 00:29:68
  TRACK 21 AUDIO
    TITLE "32:cjc123_5734"
    INDEX 01 00:30:28
  TRACK 22 AUDIO
    TITLE "0:"
    INDEX 01 00:36:36
  TRACK 23 AUDIO
    TITLE "28:cjc123_5735"
    INDEX 01 00:37:05
  TRACK 24 AUDIO
    TITLE "0:"
    INDEX 01 00:38:14
  TRACK 25 AUDIO
    TITLE "29:cjc123_5736"
    INDEX 01 00:38:37
  TRACK 26 AUDIO
    TITLE "0:"
    INDEX 01 00:39:74
  TRACK 27 AUDIO
    TITLE "30:cjc123_5737"
    INDEX 01 00:40:09
  TRACK 28 AUDIO
    TITLE "0:"
    INDEX 01 00:41:20
  TRACK 29 AUDIO
    TITLE "31:cjc123_5738"
    INDEX 01 00:41:71
  TRACK 30 AUDIO
    TITLE "0:"
    INDEX 01 00:48:20
  TRACK 31 AUDIO
    TITLE "32:cjc123_5739"
    INDEX 01 00:48:53
  TRACK 32 AUDIO
    TITLE "0:"
    INDEX 01 00:54:48
  TRACK 33 AUDIO
    TITLE "28:cjc123_5740"
    INDEX 01 00:55:20
  TRACK 34 AUDIO
    TITLE "0:"
    INDEX 01 00:56:20
  TRACK 35 AUDIO
    TITLE "29:cjc123_5741"
    INDEX 01 00:56:51
  TRACK 36 AUDIO
    TITLE "0:"
    INDEX 01 00:57:68
  TRACK 37 AUDIO
    TITLE "30:cjc123_5742"
    INDEX 01 00:58:03
  TRACK 38 AUDIO
    TITLE "0:"
    INDEX 01 00:59:18
  TRACK 39 AUDIO
    TITLE "31:cjc123_5743"
    INDEX 01 00:59:65
  TRACK 40 AUDIO
    TITLE "0:"
    INDEX 01 01:03:65
  TRACK 41 AUDIO
    TITLE "32:cjc123_5744"
    INDEX 01 01:04:21
  TRACK 42 AUDIO
    TITLE "0:"
    INDEX 01 01:09:32
  TRACK 43 AUDIO
    TITLE "28:cjc123_5745"
    INDEX 01 01:09:73
  TRACK 44 AUDIO
    TITLE "0:"
    INDEX 01 01:11:17
  TRACK 45 AUDIO
    TITLE "29:cjc123_5746"
    INDEX 01 01:11:25
  TRACK 46 AUDIO
    TITLE "0:"
    INDEX 01 01:12:38
  TRACK 47 AUDIO
    TITLE "30:cjc123_5747"
    INDEX 01 01:12:50
  TRACK 48 AUDIO
    TITLE "0:"
    INDEX 01 01:13:65
  TRACK 49 AUDIO
    TITLE "31:cjc123_5748"
    INDEX 01 01:14:68
  TRACK 50 AUDIO
    TITLE "0:"
    INDEX 01 01:21:14
  TRACK 51 AUDIO
    TITLE "32:cjc123_5749"
    INDEX 01 01:21:51
  TRACK 52 AUDIO
    TITLE "0:"
    INDEX 01 01:27:18
  TRACK 53 AUDIO
    TITLE "28:cjc123_5750"
    INDEX 01 01:27:63
  TRACK 54 AUDIO
    TITLE "0:"
    INDEX 01 01:28:74
  TRACK 55 AUDIO
    TITLE "29:cjc123_5751"
    INDEX 01 01:29:17
  TRACK 56 AUDIO
    TITLE "0:"
    INDEX 01 01:30:54
  TRACK 57 AUDIO
    TITLE "30:cjc123_5752"
    INDEX 01 01:30:67
  TRACK 58 AUDIO
    TITLE "0:"
    INDEX 01 01:32:02
  TRACK 59 AUDIO
    TITLE "31:cjc123_5753"
    INDEX 01 01:32:49
  TRACK 60 AUDIO
    TITLE "0:"
    INDEX 01 01:38:02
  TRACK 61 AUDIO
    TITLE "32:cjc123_5754"
    INDEX 01 01:38:43
  TRACK 62 AUDIO
    TITLE "0:"
    INDEX 01 01:44:44
  TRACK 63 AUDIO
    TITLE "28:cjc123_5755"
    INDEX 01 01:45:16
  TRACK 64 AUDIO
    TITLE "0:"
    INDEX 01 01:46:35
  TRACK 65 AUDIO
    TITLE "29:cjc123_5756"
    INDEX 01 01:46:47
  TRACK 66 AUDIO
    TITLE "0:"
    INDEX 01 01:47:60
  TRACK 67 AUDIO
    TITLE "30:cjc123_5757"
    INDEX 01 01:47:70
  TRACK 68 AUDIO
    TITLE "0:"
    INDEX 01 01:49:12
  TRACK 69 AUDIO
    TITLE "31:cjc123_5758"
    INDEX 01 01:49:61
  TRACK 70 AUDIO
    TITLE "0:"
    INDEX 01 01:55:05
  TRACK 71 AUDIO
    TITLE "32:cjc123_5759"
    INDEX 01 01:55:40
  TRACK 72 AUDIO
    TITLE "0:"
    INDEX 01 02:01:11
  TRACK 73 AUDIO
    TITLE "28:cjc123_5760"
    INDEX 01 02:01:58
  TRACK 74 AUDIO
    TITLE "0:"
    INDEX 01 02:02:56
  TRACK 75 AUDIO
    TITLE "29:cjc123_5761"
    INDEX 01 02:02:73
  TRACK 76 AUDIO
    TITLE "0:"
    INDEX 01 02:04:12
  TRACK 77 AUDIO
    TITLE "30:cjc123_5762"
    INDEX 01 02:04:19
  TRACK 78 AUDIO
    TITLE "0:"
    INDEX 01 02:05:23
  TRACK 79 AUDIO
    TITLE "31:cjc123_5763"
    INDEX 01 02:05:74
  TRACK 80 AUDIO
    TITLE "0:"
    INDEX 01 02:11:39
  TRACK 81 AUDIO
    TITLE "32:cjc123_5764"
    INDEX 01 02:11:70
  TRACK 82 AUDIO
    TITLE "0:"
    INDEX 01 02:17:53
  TRACK 83 AUDIO
    TITLE "28:cjc123_5765"
    INDEX 01 02:18:25
  TRACK 84 AUDIO
    TITLE "0:"
    INDEX 01 02:19:50
  TRACK 85 AUDIO
    TITLE "29:cjc123_5766"
    INDEX 01 02:19:58
  TRACK 86 AUDIO
    TITLE "0:"
    INDEX 01 02:21:02
  TRACK 87 AUDIO
    TITLE "30:cjc123_5767"
    INDEX 01 02:21:10
  TRACK 88 AUDIO
    TITLE "0:"
    INDEX 01 02:22:23
  TRACK 89 AUDIO
    TITLE "31:cjc123_5768"
    INDEX 01 02:22:72
  TRACK 90 AUDIO
    TITLE "0:"
    INDEX 01 02:28:12
  TRACK 91 AUDIO
    TITLE "32:cjc123_5769"
    INDEX 01 02:28:47
  TRACK 92 AUDIO
    TITLE "0:"
    INDEX 01 02:34:24
  TRACK 93 AUDIO
    TITLE "28:cjc123_5770"
    INDEX 01 02:34:67
  TRACK 94 AUDIO
    TITLE "0:"
    INDEX 01 02:35:71
  TRACK 95 AUDIO
    TITLE "29:cjc123_5771"
    INDEX 01 02:36:12
  TRACK 96 AUDIO
    TITLE "0:"
    INDEX 01 02:37:44
  TRACK 97 AUDIO
    TITLE "30:cjc123_5772"
    INDEX 01 02:37:52
  TRACK 98 AUDIO
    TITLE "0:"
    INDEX 01 02:38:38
  TRACK 99 AUDIO
    TITLE "31:cjc123_5773"
    INDEX 01 02:39:24
  TRACK 100 AUDIO
    TITLE "0:"
    INDEX 01 02:45:42
  TRACK 101 AUDIO
    TITLE "32:cjc123_5774"
    INDEX 01 02:46:18
  TRACK 102 AUDIO
    TITLE "0:"
    INDEX 01 02:52:05
  TRACK 103 AUDIO
    TITLE "28:cjc123_5775"
    INDEX 01 02:52:38
  TRACK 104 AUDIO
    TITLE "0:"
    INDEX 01 02:53:51
  TRACK 105 AUDIO
    TITLE "29:cjc123_5776"
    INDEX 01 02:53:59
  TRACK 106 AUDIO
    TITLE "0:"
    INDEX 01 02:55:03
  TRACK 107 AUDIO
    TITLE "30:cjc123_5777"
    INDEX 01 02:55:11
  TRACK 108 AUDIO
    TITLE "0:"
    INDEX 01 02:56:26
  TRACK 109 AUDIO
    TITLE "31:cjc123_5778"
    INDEX 01 02:57:18
  TRACK 110 AUDIO
    TITLE "0:"
    INDEX 01 03:03:53
  TRACK 111 AUDIO
    TITLE "32:cjc123_5779"
    INDEX 01 03:04:10
  TRACK 112 AUDIO
    TITLE "0:"
    INDEX 01 03:10:57
  TRACK 113 AUDIO
    TITLE "28:cjc123_5780"
    INDEX 01 03:11:08
  TRACK 114 AUDIO
    TITLE "0:"
    INDEX 01 03:12:11
  TRACK 115 AUDIO
    TITLE "29:cjc123_5781"
    INDEX 01 03:12:25
  TRACK 116 AUDIO
    TITLE "0:"
    INDEX 01 03:13:38
  TRACK 117 AUDIO
    TITLE "30:cjc123_5782"
    INDEX 01 03:13:50
  TRACK 118 AUDIO
    TITLE "0:"
    INDEX 01 03:14:47
  TRACK 119 AUDIO
    TITLE "31:cjc123_5783"
    INDEX 01 03:15:19
  TRACK 120 AUDIO
    TITLE "0:"
    INDEX 01 03:20:60
  TRACK 121 AUDIO
    TITLE "32:cjc123_5784"
    INDEX 01 03:21:38
  TRACK 122 AUDIO
    TITLE "0:"
    INDEX 01 03:28:02
  TRACK 123 AUDIO
    TITLE "28:cjc123_5785"
    INDEX 01 03:28:30
  TRACK 124 AUDIO
    TITLE "0:"
    INDEX 01 03:29:29
  TRACK 125 AUDIO
    TITLE "29:cjc123_5786"
    INDEX 01 03:29:45
  TRACK 126 AUDIO
    TITLE "0:"
    INDEX 01 03:30:56
  TRACK 127 AUDIO
    TITLE "30:cjc123_5787"
    INDEX 01 03:30:68
  TRACK 128 AUDIO
    TITLE "0:"
    INDEX 01 03:32:02
  TRACK 129 AUDIO
    TITLE "31:cjc123_5788"
    INDEX 01 03:32:49
  TRACK 130 AUDIO
    TITLE "0:"
    INDEX 01 03:37:68
  TRACK 131 AUDIO
    TITLE "32:cjc123_5789"
    INDEX 01 03:38:36
  TRACK 132 AUDIO
    TITLE "0:"
    INDEX 01 03:43:02
  TRACK 133 AUDIO
    TITLE "28:cjc123_5790"
    INDEX 01 03:43:59
  TRACK 134 AUDIO
    TITLE "0:"
    INDEX 01 03:44:62
  TRACK 135 AUDIO
    TITLE "29:cjc123_5791"
    INDEX 01 03:45:09
  TRACK 136 AUDIO
    TITLE "0:"
    INDEX 01 03:46:36
  TRACK 137 AUDIO
    TITLE "30:cjc123_5792"
    INDEX 01 03:46:49
  TRACK 138 AUDIO
    TITLE "0:"
    INDEX 01 03:47:53
  TRACK 139 AUDIO
    TITLE "31:cjc123_5793"
    INDEX 01 03:48:46
  TRACK 140 AUDIO
    TITLE "0:"
    INDEX 01 03:55:44
  TRACK 141 AUDIO
    TITLE "32:cjc123_5794"
    INDEX 01 03:55:64
  TRACK 142 AUDIO
    TITLE "0:"
    INDEX 01 04:01:31
  TRACK 143 AUDIO
    TITLE "28:cjc123_5795"
    INDEX 01 04:01:49
  TRACK 144 AUDIO
    TITLE "0:"
    INDEX 01 04:02:56
  TRACK 145 AUDIO
    TITLE "29:cjc123_5796"
    INDEX 01 04:02:70
  TRACK 146 AUDIO
    TITLE "0:"
    INDEX 01 04:04:24
  TRACK 147 AUDIO
    TITLE "30:cjc123_5797"
    INDEX 01 04:04:30
  TRACK 148 AUDIO
    TITLE "0:"
    INDEX 01 04:05:41
  TRACK 149 AUDIO
    TITLE "31:cjc123_5798"
    INDEX 01 04:06:15
  TRACK 150 AUDIO
    TITLE "0:"
    INDEX 01 04:10:66
  TRACK 151 AUDIO
    TITLE "32:cjc123_5799"
    INDEX 01 04:11:26
  TRACK 152 AUDIO
    TITLE "0:"
    INDEX 01 04:16:29
